<svg xmlns="http://www.w3.org/2000/svg" width="32" height="32" fill="none" viewBox="0 0 32 32"><path fill="#D9D9D9" d="M2.96566 3.71979C6.815 2.58586 12.5166 0.885705 14.9212 0.167934C15.6652 -0.054158 16.452 -0.055892 17.1972 0.162309C19.5137 0.840581 24.9019 2.42557 29.0684 3.70723C29.9112 3.96652 30.486 4.76061 30.465 5.64224C29.9837 26.0136 19.7024 30.9007 16.8082 31.8747C16.3135 32.0413 15.7991 32.0417 15.3037 31.8765C12.3956 30.9071 2.02902 26.0306 1.53476 5.67037C1.51304 4.77521 2.10675 3.97281 2.96566 3.71979Z"/><mask id="mask0_10440_11797" width="30" height="32" x="1" y="0" maskUnits="userSpaceOnUse" style="mask-type:alpha"><path fill="#D9D9D9" d="M2.96566 3.71979C6.815 2.58586 12.5166 0.885705 14.9212 0.167934C15.6652 -0.054158 16.452 -0.055892 17.1972 0.162309C19.5137 0.840581 24.9019 2.42557 29.0684 3.70723C29.9112 3.96652 30.486 4.76061 30.465 5.64224C29.9837 26.0136 19.7024 30.9007 16.8082 31.8747C16.3135 32.0413 15.7991 32.0417 15.3037 31.8765C12.3956 30.9071 2.02902 26.0306 1.53476 5.67037C1.51304 4.77521 2.10675 3.97281 2.96566 3.71979Z"/></mask><g mask="url(#mask0_10440_11797)"><path fill="url(#paint0_linear_10440_11797)" d="M16.0552 15.5047L15.8281 -0.739014L31.3903 3.46392L16.0552 15.5047Z"/><path fill="url(#paint1_linear_10440_11797)" d="M16.0562 15.5048V-0.171021L1.17554 3.80472L-0.869141 13.4601L5.60564 23.5697L16.0562 15.5048Z"/><path fill="url(#paint2_linear_10440_11797)" d="M30.9372 3.80469L5.37891 23.5697V32.5437H30.5964L30.9372 3.80469Z"/></g><defs><linearGradient id="paint0_linear_10440_11797" x1="16.055" x2="26.96" y1="-.171" y2="6.985" gradientUnits="userSpaceOnUse"><stop stop-color="#19AAE8"/><stop offset="1" stop-color="#1EA5F1"/></linearGradient><linearGradient id="paint1_linear_10440_11797" x1="1.63" x2="16.056" y1="4.146" y2="15.278" gradientUnits="userSpaceOnUse"><stop stop-color="#2BE2B8"/><stop offset="1" stop-color="#19B9E3"/></linearGradient><linearGradient id="paint2_linear_10440_11797" x1="30.369" x2="11.513" y1="3.918" y2="30.044" gradientUnits="userSpaceOnUse"><stop stop-color="#925CDF"/><stop offset="1" stop-color="#CC42E5"/></linearGradient></defs></svg>