<svg xmlns="http://www.w3.org/2000/svg" width="36" height="36" fill="none" viewBox="0 0 36 36"><path fill="#12FFF7" fill-rule="evenodd" d="M0 6.20681C0 2.77888 2.77888 0 6.20681 0H29.7927C33.2206 0 35.9995 2.77888 35.9995 6.20681V26.2666C35.9995 29.813 31.5118 31.3521 29.3352 28.5522L22.5307 19.799V30.4134C22.5307 33.4985 20.0297 35.9995 16.9446 35.9995H6.20681C2.77888 35.9995 0 33.2206 0 29.7927V6.20681ZM6.20681 4.96545C5.52123 4.96545 4.96545 5.52123 4.96545 6.20681V29.7927C4.96545 30.4783 5.52123 31.0341 6.20681 31.0341H17.1308C17.4736 31.0341 17.5653 30.7562 17.5653 30.4134V16.1795C17.5653 12.6331 22.053 11.0939 24.2296 13.8939L31.0341 22.6471V6.20681C31.0341 5.52123 31.099 4.96545 30.4134 4.96545H6.20681Z" clip-rule="evenodd"/><path fill="url(#paint0_linear_7800_11377)" fill-rule="evenodd" d="M0 6.20681C0 2.77888 2.77888 0 6.20681 0H29.7927C33.2206 0 35.9995 2.77888 35.9995 6.20681V26.2666C35.9995 29.813 31.5118 31.3521 29.3352 28.5522L22.5307 19.799V30.4134C22.5307 33.4985 20.0297 35.9995 16.9446 35.9995H6.20681C2.77888 35.9995 0 33.2206 0 29.7927V6.20681ZM6.20681 4.96545C5.52123 4.96545 4.96545 5.52123 4.96545 6.20681V29.7927C4.96545 30.4783 5.52123 31.0341 6.20681 31.0341H17.1308C17.4736 31.0341 17.5653 30.7562 17.5653 30.4134V16.1795C17.5653 12.6331 22.053 11.0939 24.2296 13.8939L31.0341 22.6471V6.20681C31.0341 5.52123 31.099 4.96545 30.4134 4.96545H6.20681Z" clip-rule="evenodd"/><path fill="url(#paint1_linear_7800_11377)" fill-rule="evenodd" d="M0 6.20681C0 2.77888 2.77888 0 6.20681 0H29.7927C33.2206 0 35.9995 2.77888 35.9995 6.20681V26.2666C35.9995 29.813 31.5118 31.3521 29.3352 28.5522L22.5307 19.799V30.4134C22.5307 33.4985 20.0297 35.9995 16.9446 35.9995H6.20681C2.77888 35.9995 0 33.2206 0 29.7927V6.20681ZM6.20681 4.96545C5.52123 4.96545 4.96545 5.52123 4.96545 6.20681V29.7927C4.96545 30.4783 5.52123 31.0341 6.20681 31.0341H17.1308C17.4736 31.0341 17.5653 30.7562 17.5653 30.4134V16.1795C17.5653 12.6331 22.053 11.0939 24.2296 13.8939L31.0341 22.6471V6.20681C31.0341 5.52123 31.099 4.96545 30.4134 4.96545H6.20681Z" clip-rule="evenodd"/><path fill="#B9FFB3" d="M29.7934 0C33.2213 0 36.0002 2.77888 36.0002 6.20681V26.2666C36.0002 29.813 31.5125 31.3521 29.3359 28.5522L22.5314 19.799V30.4134C22.5314 33.4985 20.0304 35.9995 16.9453 35.9995C17.2881 35.9995 17.566 35.7216 17.566 35.3788V16.1795C17.566 12.6331 22.0537 11.0939 24.2303 13.8939L31.0348 22.6471V1.24136C31.0348 0.555777 30.479 0 29.7934 0Z"/><defs><linearGradient id="paint0_linear_7800_11377" x1="35.999" x2="4.345" y1="35.999" y2="0" gradientUnits="userSpaceOnUse"><stop stop-color="#B9FFB3"/><stop offset="1" stop-color="#B9FFB3" stop-opacity="0"/></linearGradient><linearGradient id="paint1_linear_7800_11377" x1="35.999" x2="14.617" y1="35.999" y2="27.682" gradientUnits="userSpaceOnUse"><stop stop-color="#1A1A1A" stop-opacity=".9"/><stop offset="1" stop-color="#1A1A1A" stop-opacity="0"/></linearGradient></defs></svg>