<svg xmlns="http://www.w3.org/2000/svg" width="345" height="35" fill="none" viewBox="0 0 345 35"><g clip-path="url(#clip0_4301_32038)"><g style="mix-blend-mode:overlay" opacity=".3"><line x1=".646" x2="226.921" y1="35.921" y2="-190.353" stroke="#0C0D0D"/><line x1="2.061" x2="228.335" y1="37.335" y2="-188.939" stroke="#0C0D0D"/><line x1="3.475" x2="229.749" y1="38.749" y2="-187.525" stroke="#0C0D0D"/><line x1="4.889" x2="231.163" y1="40.163" y2="-186.111" stroke="#0C0D0D"/><line x1="6.303" x2="232.577" y1="41.578" y2="-184.697" stroke="#0C0D0D"/><line x1="7.717" x2="233.991" y1="42.992" y2="-183.282" stroke="#0C0D0D"/><line x1="9.131" x2="235.405" y1="44.406" y2="-181.868" stroke="#0C0D0D"/><line x1="10.547" x2="236.821" y1="45.82" y2="-180.454" stroke="#0C0D0D"/><line x1="11.961" x2="238.235" y1="47.235" y2="-179.04" stroke="#0C0D0D"/><line x1="13.375" x2="239.649" y1="48.649" y2="-177.625" stroke="#0C0D0D"/><line x1="14.789" x2="241.063" y1="50.063" y2="-176.211" stroke="#0C0D0D"/><line x1="16.203" x2="242.477" y1="51.477" y2="-174.797" stroke="#0C0D0D"/><line x1="17.617" x2="243.891" y1="52.891" y2="-173.383" stroke="#0C0D0D"/><line x1="19.031" x2="245.305" y1="54.306" y2="-171.969" stroke="#0C0D0D"/><line x1="20.445" x2="246.719" y1="55.72" y2="-170.554" stroke="#0C0D0D"/><line x1="21.859" x2="248.133" y1="57.134" y2="-169.14" stroke="#0C0D0D"/><line x1="23.273" x2="249.548" y1="58.548" y2="-167.726" stroke="#0C0D0D"/><line x1="24.688" x2="250.962" y1="59.963" y2="-166.312" stroke="#0C0D0D"/><line x1="26.102" x2="252.376" y1="61.377" y2="-164.897" stroke="#0C0D0D"/><line x1="27.516" x2="253.79" y1="62.791" y2="-163.483" stroke="#0C0D0D"/><line x1="28.932" x2="255.206" y1="64.205" y2="-162.069" stroke="#0C0D0D"/><line x1="30.346" x2="256.62" y1="65.619" y2="-160.655" stroke="#0C0D0D"/><line x1="31.76" x2="258.034" y1="67.034" y2="-159.241" stroke="#0C0D0D"/><line x1="33.174" x2="259.448" y1="68.448" y2="-157.826" stroke="#0C0D0D"/><line x1="34.588" x2="260.862" y1="69.862" y2="-156.412" stroke="#0C0D0D"/><line x1="36.002" x2="262.276" y1="71.276" y2="-154.998" stroke="#0C0D0D"/><line x1="37.416" x2="263.69" y1="72.69" y2="-153.584" stroke="#0C0D0D"/><line x1="38.83" x2="265.104" y1="74.105" y2="-152.169" stroke="#0C0D0D"/><line x1="40.244" x2="266.518" y1="75.519" y2="-150.755" stroke="#0C0D0D"/><line x1="41.658" x2="267.932" y1="76.933" y2="-149.341" stroke="#0C0D0D"/><line x1="43.072" x2="269.346" y1="78.347" y2="-147.927" stroke="#0C0D0D"/><line x1="44.486" x2="270.76" y1="79.761" y2="-146.513" stroke="#0C0D0D"/><line x1="45.9" x2="272.175" y1="81.176" y2="-145.098" stroke="#0C0D0D"/><line x1="47.316" x2="273.591" y1="82.59" y2="-143.684" stroke="#0C0D0D"/><line x1="48.73" x2="275.005" y1="84.004" y2="-142.27" stroke="#0C0D0D"/><line x1="50.145" x2="276.419" y1="85.418" y2="-140.856" stroke="#0C0D0D"/><line x1="51.559" x2="277.833" y1="86.832" y2="-139.442" stroke="#0C0D0D"/><line x1="52.973" x2="279.247" y1="88.247" y2="-138.027" stroke="#0C0D0D"/><line x1="54.387" x2="280.661" y1="89.661" y2="-136.613" stroke="#0C0D0D"/><line x1="55.801" x2="282.075" y1="91.075" y2="-135.199" stroke="#0C0D0D"/><line x1="57.215" x2="283.489" y1="92.49" y2="-133.785" stroke="#0C0D0D"/><line x1="58.629" x2="284.903" y1="93.903" y2="-132.371" stroke="#0C0D0D"/><line x1="60.043" x2="286.317" y1="95.318" y2="-130.956" stroke="#0C0D0D"/><line x1="61.457" x2="287.731" y1="96.732" y2="-129.542" stroke="#0C0D0D"/><line x1="62.871" x2="289.145" y1="98.146" y2="-128.128" stroke="#0C0D0D"/><line x1="64.285" x2="290.559" y1="99.561" y2="-126.714" stroke="#0C0D0D"/><line x1="65.701" x2="291.975" y1="100.975" y2="-125.3" stroke="#0C0D0D"/><line x1="67.115" x2="293.389" y1="102.389" y2="-123.885" stroke="#0C0D0D"/><line x1="68.529" x2="294.803" y1="103.803" y2="-122.471" stroke="#0C0D0D"/><line x1="69.943" x2="296.217" y1="105.217" y2="-121.057" stroke="#0C0D0D"/><line x1="71.357" x2="297.632" y1="106.632" y2="-119.643" stroke="#0C0D0D"/><line x1="72.771" x2="299.046" y1="108.046" y2="-118.228" stroke="#0C0D0D"/><line x1="74.186" x2="300.46" y1="109.46" y2="-116.814" stroke="#0C0D0D"/><line x1="75.6" x2="301.874" y1="110.874" y2="-115.4" stroke="#0C0D0D"/><line x1="77.014" x2="303.288" y1="112.288" y2="-113.986" stroke="#0C0D0D"/><line x1="78.428" x2="304.702" y1="113.703" y2="-112.572" stroke="#0C0D0D"/><line x1="79.842" x2="306.116" y1="115.117" y2="-111.157" stroke="#0C0D0D"/><line x1="81.256" x2="307.53" y1="116.531" y2="-109.743" stroke="#0C0D0D"/><line x1="82.67" x2="308.944" y1="117.945" y2="-108.329" stroke="#0C0D0D"/><line x1="84.086" x2="310.36" y1="119.36" y2="-106.915" stroke="#0C0D0D"/><line x1="85.5" x2="311.774" y1="120.774" y2="-105.501" stroke="#0C0D0D"/><line x1="86.914" x2="313.188" y1="122.188" y2="-104.086" stroke="#0C0D0D"/><line x1="88.328" x2="314.602" y1="123.602" y2="-102.672" stroke="#0C0D0D"/><line x1="89.742" x2="316.016" y1="125.016" y2="-101.258" stroke="#0C0D0D"/><line x1="91.156" x2="317.43" y1="126.431" y2="-99.844" stroke="#0C0D0D"/><line x1="92.57" x2="318.844" y1="127.845" y2="-98.43" stroke="#0C0D0D"/><line x1="93.984" x2="320.259" y1="129.259" y2="-97.015" stroke="#0C0D0D"/><line x1="95.398" x2="321.673" y1="130.673" y2="-95.601" stroke="#0C0D0D"/><line x1="96.813" x2="323.087" y1="132.087" y2="-94.187" stroke="#0C0D0D"/><line x1="98.227" x2="324.501" y1="133.502" y2="-92.772" stroke="#0C0D0D"/><line x1="99.641" x2="325.915" y1="134.916" y2="-91.358" stroke="#0C0D0D"/><line x1="101.055" x2="327.329" y1="136.33" y2="-89.944" stroke="#0C0D0D"/><line x1="102.471" x2="328.745" y1="137.744" y2="-88.53" stroke="#0C0D0D"/><line x1="103.885" x2="330.159" y1="139.158" y2="-87.116" stroke="#0C0D0D"/><line x1="105.299" x2="331.573" y1="140.573" y2="-85.701" stroke="#0C0D0D"/><line x1="106.713" x2="332.987" y1="141.987" y2="-84.287" stroke="#0C0D0D"/><line x1="108.127" x2="334.401" y1="143.401" y2="-82.873" stroke="#0C0D0D"/><line x1="109.541" x2="335.815" y1="144.815" y2="-81.459" stroke="#0C0D0D"/><line x1="110.955" x2="337.229" y1="146.229" y2="-80.045" stroke="#0C0D0D"/><line x1="112.369" x2="338.643" y1="147.644" y2="-78.63" stroke="#0C0D0D"/><line x1="113.783" x2="340.057" y1="149.058" y2="-77.216" stroke="#0C0D0D"/><line x1="115.197" x2="341.471" y1="150.472" y2="-75.802" stroke="#0C0D0D"/><line x1="116.611" x2="342.885" y1="151.886" y2="-74.388" stroke="#0C0D0D"/><line x1="118.025" x2="344.3" y1="153.3" y2="-72.974" stroke="#0C0D0D"/><line x1="119.439" x2="345.714" y1="154.715" y2="-71.559" stroke="#0C0D0D"/><line x1="120.855" x2="347.13" y1="156.129" y2="-70.145" stroke="#0C0D0D"/><line x1="122.269" x2="348.544" y1="157.543" y2="-68.731" stroke="#0C0D0D"/><line x1="123.684" x2="349.958" y1="158.957" y2="-67.317" stroke="#0C0D0D"/><line x1="125.098" x2="351.372" y1="160.372" y2="-65.903" stroke="#0C0D0D"/><line x1="126.512" x2="352.786" y1="161.786" y2="-64.488" stroke="#0C0D0D"/><line x1="127.926" x2="354.2" y1="163.2" y2="-63.074" stroke="#0C0D0D"/><line x1="129.34" x2="355.614" y1="164.614" y2="-61.66" stroke="#0C0D0D"/><line x1="130.754" x2="357.028" y1="166.029" y2="-60.246" stroke="#0C0D0D"/><line x1="132.168" x2="358.442" y1="167.443" y2="-58.831" stroke="#0C0D0D"/><line x1="133.582" x2="359.856" y1="168.857" y2="-57.417" stroke="#0C0D0D"/><line x1="134.996" x2="361.27" y1="170.271" y2="-56.003" stroke="#0C0D0D"/><line x1="136.41" x2="362.684" y1="171.685" y2="-54.589" stroke="#0C0D0D"/><line x1="137.826" x2="364.1" y1="173.1" y2="-53.175" stroke="#0C0D0D"/><line x1="139.24" x2="365.514" y1="174.514" y2="-51.76" stroke="#0C0D0D"/><line x1="140.654" x2="366.928" y1="175.928" y2="-50.346" stroke="#0C0D0D"/><line x1="142.068" x2="368.342" y1="177.342" y2="-48.932" stroke="#0C0D0D"/><line x1="143.482" x2="369.757" y1="178.756" y2="-47.518" stroke="#0C0D0D"/><line x1="144.896" x2="371.171" y1="180.171" y2="-46.103" stroke="#0C0D0D"/><line x1="146.311" x2="372.585" y1="181.585" y2="-44.689" stroke="#0C0D0D"/><line x1="147.725" x2="373.999" y1="182.999" y2="-43.275" stroke="#0C0D0D"/><line x1="149.139" x2="375.413" y1="184.413" y2="-41.861" stroke="#0C0D0D"/><line x1="150.553" x2="376.827" y1="185.828" y2="-40.447" stroke="#0C0D0D"/><line x1="151.967" x2="378.241" y1="187.242" y2="-39.032" stroke="#0C0D0D"/><line x1="153.381" x2="379.655" y1="188.656" y2="-37.618" stroke="#0C0D0D"/><line x1="154.795" x2="381.069" y1="190.07" y2="-36.204" stroke="#0C0D0D"/></g></g><defs><clipPath id="clip0_4301_32038"><rect width="345" height="35" fill="#fff"/></clipPath></defs></svg>