<svg xmlns="http://www.w3.org/2000/svg" width="1448" height="4815" fill="none" viewBox="0 0 1448 4815"><mask id="mask0_10508_18638" width="1448" height="4815" x="0" y="0" maskUnits="userSpaceOnUse" style="mask-type:alpha"><g opacity=".02"><path stroke="#fff" stroke-width="8" d="M364 0V4815"/><path stroke="#fff" stroke-width="8" d="M324 0V4815"/><path stroke="#fff" stroke-width="8" d="M284 0V4815"/><path stroke="#fff" stroke-width="8" d="M244 0V4815"/><path stroke="#fff" stroke-width="8" d="M204 0V4815"/><path stroke="#fff" stroke-width="8" d="M164 0V4815"/><path stroke="#fff" stroke-width="8" d="M124 0V4815"/><path stroke="#fff" stroke-width="8" d="M84 0V4815"/><path stroke="#fff" stroke-width="8" d="M44 0V4815"/><path stroke="#fff" stroke-width="8" d="M4 0V4815"/><path stroke="#fff" stroke-width="8" d="M844 0V4815"/><path stroke="#fff" stroke-width="8" d="M804 0V4815"/><path stroke="#fff" stroke-width="8" d="M764 0V4815"/><path stroke="#fff" stroke-width="8" d="M724 0V4815"/><path stroke="#fff" stroke-width="8" d="M684 0V4815"/><path stroke="#fff" stroke-width="8" d="M644 0V4815"/><path stroke="#fff" stroke-width="8" d="M604 0V4815"/><path stroke="#fff" stroke-width="8" d="M564 0V4815"/><path stroke="#fff" stroke-width="8" d="M524 0V4815"/><path stroke="#fff" stroke-width="8" d="M484 0V4815"/><path stroke="#fff" stroke-width="8" d="M444 0V4815"/><path stroke="#fff" stroke-width="8" d="M404 0V4815"/><path stroke="#fff" stroke-width="8" d="M1324 0V4815"/><path stroke="#fff" stroke-width="8" d="M1284 0V4815"/><path stroke="#fff" stroke-width="8" d="M1244 0V4815"/><path stroke="#fff" stroke-width="8" d="M1204 0V4815"/><path stroke="#fff" stroke-width="8" d="M1164 0V4815"/><path stroke="#fff" stroke-width="8" d="M1364 0V4815"/><path stroke="#fff" stroke-width="8" d="M1404 0V4815"/><path stroke="#fff" stroke-width="8" d="M1444 0V4815"/><path stroke="#fff" stroke-width="8" d="M1124 0V4815"/><path stroke="#fff" stroke-width="8" d="M1084 0V4815"/><path stroke="#fff" stroke-width="8" d="M1044 0V4815"/><path stroke="#fff" stroke-width="8" d="M1004 0V4815"/><path stroke="#fff" stroke-width="8" d="M964 0V4815"/><path stroke="#fff" stroke-width="8" d="M924 0V4815"/><path stroke="#fff" stroke-width="8" d="M884 0V4815"/></g></mask><g mask="url(#mask0_10508_18638)"><g filter="url(#filter0_f_10508_18638)"><ellipse cx="1244" cy="1884" fill="#fff" rx="170" ry="400"/></g><g filter="url(#filter1_f_10508_18638)"><ellipse cx="724" cy="4550.86" fill="#fff" rx="150" ry="264.142"/></g><g filter="url(#filter2_f_10508_18638)"><circle cx="724" cy="1088" r="170" fill="#fff"/></g><g filter="url(#filter3_f_10508_18638)"><ellipse cx="364" cy="1630" fill="#fff" rx="170" ry="400"/></g><g filter="url(#filter4_f_10508_18638)"><circle cx="364" cy="2506" r="170" fill="#fff"/></g><g filter="url(#filter5_f_10508_18638)"><ellipse cx="1084" cy="3048" fill="#fff" rx="170" ry="400"/></g><g filter="url(#filter6_f_10508_18638)"><circle cx="1084" cy="3924" r="170" fill="#fff"/></g><g filter="url(#filter7_f_10508_18638)"><ellipse cx="163" cy="3334" fill="#fff" rx="170" ry="400"/></g></g><defs><filter id="filter0_f_10508_18638" width="768" height="1228" x="860" y="1270" color-interpolation-filters="sRGB" filterUnits="userSpaceOnUse"><feFlood flood-opacity="0" result="BackgroundImageFix"/><feBlend in="SourceGraphic" in2="BackgroundImageFix" mode="normal" result="shape"/><feGaussianBlur result="effect1_foregroundBlur_10508_18638" stdDeviation="107"/></filter><filter id="filter1_f_10508_18638" width="728" height="956.284" x="360" y="4072.72" color-interpolation-filters="sRGB" filterUnits="userSpaceOnUse"><feFlood flood-opacity="0" result="BackgroundImageFix"/><feBlend in="SourceGraphic" in2="BackgroundImageFix" mode="normal" result="shape"/><feGaussianBlur result="effect1_foregroundBlur_10508_18638" stdDeviation="107"/></filter><filter id="filter2_f_10508_18638" width="768" height="768" x="340" y="704" color-interpolation-filters="sRGB" filterUnits="userSpaceOnUse"><feFlood flood-opacity="0" result="BackgroundImageFix"/><feBlend in="SourceGraphic" in2="BackgroundImageFix" mode="normal" result="shape"/><feGaussianBlur result="effect1_foregroundBlur_10508_18638" stdDeviation="107"/></filter><filter id="filter3_f_10508_18638" width="768" height="1228" x="-20" y="1016" color-interpolation-filters="sRGB" filterUnits="userSpaceOnUse"><feFlood flood-opacity="0" result="BackgroundImageFix"/><feBlend in="SourceGraphic" in2="BackgroundImageFix" mode="normal" result="shape"/><feGaussianBlur result="effect1_foregroundBlur_10508_18638" stdDeviation="107"/></filter><filter id="filter4_f_10508_18638" width="768" height="768" x="-20" y="2122" color-interpolation-filters="sRGB" filterUnits="userSpaceOnUse"><feFlood flood-opacity="0" result="BackgroundImageFix"/><feBlend in="SourceGraphic" in2="BackgroundImageFix" mode="normal" result="shape"/><feGaussianBlur result="effect1_foregroundBlur_10508_18638" stdDeviation="107"/></filter><filter id="filter5_f_10508_18638" width="768" height="1228" x="700" y="2434" color-interpolation-filters="sRGB" filterUnits="userSpaceOnUse"><feFlood flood-opacity="0" result="BackgroundImageFix"/><feBlend in="SourceGraphic" in2="BackgroundImageFix" mode="normal" result="shape"/><feGaussianBlur result="effect1_foregroundBlur_10508_18638" stdDeviation="107"/></filter><filter id="filter6_f_10508_18638" width="768" height="768" x="700" y="3540" color-interpolation-filters="sRGB" filterUnits="userSpaceOnUse"><feFlood flood-opacity="0" result="BackgroundImageFix"/><feBlend in="SourceGraphic" in2="BackgroundImageFix" mode="normal" result="shape"/><feGaussianBlur result="effect1_foregroundBlur_10508_18638" stdDeviation="107"/></filter><filter id="filter7_f_10508_18638" width="768" height="1228" x="-221" y="2720" color-interpolation-filters="sRGB" filterUnits="userSpaceOnUse"><feFlood flood-opacity="0" result="BackgroundImageFix"/><feBlend in="SourceGraphic" in2="BackgroundImageFix" mode="normal" result="shape"/><feGaussianBlur result="effect1_foregroundBlur_10508_18638" stdDeviation="107"/></filter></defs></svg>