<svg xmlns="http://www.w3.org/2000/svg" width="688" height="3196" fill="none" viewBox="0 0 688 3196"><mask id="mask0_10829_20141" width="688" height="3196" x="0" y="0" maskUnits="userSpaceOnUse" style="mask-type:alpha"><g opacity=".02"><path stroke="#fff" stroke-width="8" d="M310 0V3196"/><path stroke="#fff" stroke-width="8" d="M276 0V3196"/><path stroke="#fff" stroke-width="8" d="M242 0V3196"/><path stroke="#fff" stroke-width="8" d="M208 0V3196"/><path stroke="#fff" stroke-width="8" d="M174 0V3196"/><path stroke="#fff" stroke-width="8" d="M140 0V3196"/><path stroke="#fff" stroke-width="8" d="M106 0V3196"/><path stroke="#fff" stroke-width="8" d="M72 0V3196"/><path stroke="#fff" stroke-width="8" d="M38 0V3196"/><path stroke="#fff" stroke-width="8" d="M4 0V3196"/><path stroke="#fff" stroke-width="8" d="M650 0V3196"/><path stroke="#fff" stroke-width="8" d="M684 0V3196"/><path stroke="#fff" stroke-width="8" d="M548 0V3196"/><path stroke="#fff" stroke-width="8" d="M582 0V3196"/><path stroke="#fff" stroke-width="8" d="M616 0V3196"/><path stroke="#fff" stroke-width="8" d="M514 0V3196"/><path stroke="#fff" stroke-width="8" d="M480 0V3196"/><path stroke="#fff" stroke-width="8" d="M446 0V3196"/><path stroke="#fff" stroke-width="8" d="M412 0V3196"/><path stroke="#fff" stroke-width="8" d="M378 0V3196"/><path stroke="#fff" stroke-width="8" d="M344 0V3196"/></g></mask><g mask="url(#mask0_10829_20141)"><g filter="url(#filter0_f_10829_20141)"><circle cx="344" cy="786" r="142" fill="#fff"/></g><g filter="url(#filter1_f_10829_20141)"><circle cx="344" cy="1711" r="142" fill="#fff"/></g><g filter="url(#filter2_f_10829_20141)"><circle cx="344" cy="2637" r="142" fill="#fff"/></g></g><defs><filter id="filter0_f_10829_20141" width="712" height="712" x="-12" y="430" color-interpolation-filters="sRGB" filterUnits="userSpaceOnUse"><feFlood flood-opacity="0" result="BackgroundImageFix"/><feBlend in="SourceGraphic" in2="BackgroundImageFix" mode="normal" result="shape"/><feGaussianBlur result="effect1_foregroundBlur_10829_20141" stdDeviation="107"/></filter><filter id="filter1_f_10829_20141" width="712" height="712" x="-12" y="1355" color-interpolation-filters="sRGB" filterUnits="userSpaceOnUse"><feFlood flood-opacity="0" result="BackgroundImageFix"/><feBlend in="SourceGraphic" in2="BackgroundImageFix" mode="normal" result="shape"/><feGaussianBlur result="effect1_foregroundBlur_10829_20141" stdDeviation="107"/></filter><filter id="filter2_f_10829_20141" width="712" height="712" x="-12" y="2281" color-interpolation-filters="sRGB" filterUnits="userSpaceOnUse"><feFlood flood-opacity="0" result="BackgroundImageFix"/><feBlend in="SourceGraphic" in2="BackgroundImageFix" mode="normal" result="shape"/><feGaussianBlur result="effect1_foregroundBlur_10829_20141" stdDeviation="107"/></filter></defs></svg>