<svg xmlns="http://www.w3.org/2000/svg" width="884" height="3780" fill="none" viewBox="0 0 884 3780"><mask id="mask0_10773_23641" width="892" height="3780" x="-4" y="0" maskUnits="userSpaceOnUse" style="mask-type:alpha"><g opacity=".02"><path stroke="#fff" stroke-width="8" d="M34 0V3780"/><path stroke="#fff" stroke-width="8" d="M0 0V3780"/><path stroke="#fff" stroke-width="8" d="M442 0V3780"/><path stroke="#fff" stroke-width="8" d="M408 0V3780"/><path stroke="#fff" stroke-width="8" d="M374 0V3780"/><path stroke="#fff" stroke-width="8" d="M340 0V3780"/><path stroke="#fff" stroke-width="8" d="M306 0V3780"/><path stroke="#fff" stroke-width="8" d="M272 0V3780"/><path stroke="#fff" stroke-width="8" d="M238 0V3780"/><path stroke="#fff" stroke-width="8" d="M204 0V3780"/><path stroke="#fff" stroke-width="8" d="M170 0V3780"/><path stroke="#fff" stroke-width="8" d="M136 0V3780"/><path stroke="#fff" stroke-width="8" d="M102 0V3780"/><path stroke="#fff" stroke-width="8" d="M68 0V3780"/><path stroke="#fff" stroke-width="8" d="M782 0V3780"/><path stroke="#fff" stroke-width="8" d="M816 0V3780"/><path stroke="#fff" stroke-width="8" d="M850 0V3780"/><path stroke="#fff" stroke-width="8" d="M884 0V3780"/><path stroke="#fff" stroke-width="8" d="M680 0V3780"/><path stroke="#fff" stroke-width="8" d="M714 0V3780"/><path stroke="#fff" stroke-width="8" d="M748 0V3780"/><path stroke="#fff" stroke-width="8" d="M646 0V3780"/><path stroke="#fff" stroke-width="8" d="M612 0V3780"/><path stroke="#fff" stroke-width="8" d="M578 0V3780"/><path stroke="#fff" stroke-width="8" d="M544 0V3780"/><path stroke="#fff" stroke-width="8" d="M510 0V3780"/><path stroke="#fff" stroke-width="8" d="M476 0V3780"/></g></mask><g mask="url(#mask0_10773_23641)"><g filter="url(#filter0_f_10773_23641)"><circle cx="442" cy="945" r="170" fill="#fff"/></g><g filter="url(#filter1_f_10773_23641)"><circle cx="442" cy="2054" r="170" fill="#fff"/></g><g filter="url(#filter2_f_10773_23641)"><circle cx="442" cy="3165" r="170" fill="#fff"/></g></g><defs><filter id="filter0_f_10773_23641" width="768" height="768" x="58" y="561" color-interpolation-filters="sRGB" filterUnits="userSpaceOnUse"><feFlood flood-opacity="0" result="BackgroundImageFix"/><feBlend in="SourceGraphic" in2="BackgroundImageFix" mode="normal" result="shape"/><feGaussianBlur result="effect1_foregroundBlur_10773_23641" stdDeviation="107"/></filter><filter id="filter1_f_10773_23641" width="768" height="768" x="58" y="1670" color-interpolation-filters="sRGB" filterUnits="userSpaceOnUse"><feFlood flood-opacity="0" result="BackgroundImageFix"/><feBlend in="SourceGraphic" in2="BackgroundImageFix" mode="normal" result="shape"/><feGaussianBlur result="effect1_foregroundBlur_10773_23641" stdDeviation="107"/></filter><filter id="filter2_f_10773_23641" width="768" height="768" x="58" y="2781" color-interpolation-filters="sRGB" filterUnits="userSpaceOnUse"><feFlood flood-opacity="0" result="BackgroundImageFix"/><feBlend in="SourceGraphic" in2="BackgroundImageFix" mode="normal" result="shape"/><feGaussianBlur result="effect1_foregroundBlur_10773_23641" stdDeviation="107"/></filter></defs></svg>