<svg xmlns="http://www.w3.org/2000/svg" width="346" height="3330" fill="none" viewBox="0 0 346 3330"><mask id="mask0_10834_22348" width="346" height="3330" x="0" y="0" maskUnits="userSpaceOnUse" style="mask-type:alpha"><g opacity=".02"><path stroke="#fff" stroke-width="6" d="M139 0V3330"/><path stroke="#fff" stroke-width="6" d="M105 0V3330"/><path stroke="#fff" stroke-width="6" d="M71 0V3330"/><path stroke="#fff" stroke-width="6" d="M37 0V3330"/><path stroke="#fff" stroke-width="6" d="M3 0V3330"/><path stroke="#fff" stroke-width="6" d="M343 0V3330"/><path stroke="#fff" stroke-width="6" d="M309 0V3330"/><path stroke="#fff" stroke-width="6" d="M275 0V3330"/><path stroke="#fff" stroke-width="6" d="M241 0V3330"/><path stroke="#fff" stroke-width="6" d="M207 0V3330"/><path stroke="#fff" stroke-width="6" d="M172 0V3330"/></g></mask><g mask="url(#mask0_10834_22348)"><g filter="url(#filter0_f_10834_22348)"><circle cx="172" cy="916" r="195" fill="#fff"/></g><g filter="url(#filter1_f_10834_22348)"><circle cx="172" cy="1919" r="195" fill="#fff"/></g><g filter="url(#filter2_f_10834_22348)"><circle cx="172" cy="2949" r="195" fill="#fff"/></g></g><defs><filter id="filter0_f_10834_22348" width="818" height="818" x="-237" y="507" color-interpolation-filters="sRGB" filterUnits="userSpaceOnUse"><feFlood flood-opacity="0" result="BackgroundImageFix"/><feBlend in="SourceGraphic" in2="BackgroundImageFix" mode="normal" result="shape"/><feGaussianBlur result="effect1_foregroundBlur_10834_22348" stdDeviation="107"/></filter><filter id="filter1_f_10834_22348" width="818" height="818" x="-237" y="1510" color-interpolation-filters="sRGB" filterUnits="userSpaceOnUse"><feFlood flood-opacity="0" result="BackgroundImageFix"/><feBlend in="SourceGraphic" in2="BackgroundImageFix" mode="normal" result="shape"/><feGaussianBlur result="effect1_foregroundBlur_10834_22348" stdDeviation="107"/></filter><filter id="filter2_f_10834_22348" width="818" height="818" x="-237" y="2540" color-interpolation-filters="sRGB" filterUnits="userSpaceOnUse"><feFlood flood-opacity="0" result="BackgroundImageFix"/><feBlend in="SourceGraphic" in2="BackgroundImageFix" mode="normal" result="shape"/><feGaussianBlur result="effect1_foregroundBlur_10834_22348" stdDeviation="107"/></filter></defs></svg>