<svg xmlns="http://www.w3.org/2000/svg" width="298" height="177" fill="none" viewBox="0 0 298 177"><g filter="url(#filter0_f_11089_61636)"><ellipse cx="-198.633" cy="-78.33" fill="#2252B1" fill-opacity=".62" rx="174" ry="98" transform="rotate(40.265 -198.633 -78.3297)"/></g><g filter="url(#filter1_f_11089_61636)"><ellipse cx="29.496" cy="-100.455" fill="#0CD4EF" fill-opacity=".8" rx="84.5" ry="139" transform="rotate(67.7629 29.496 -100.455)"/></g><g filter="url(#filter2_f_11089_61636)"><ellipse cx="24.005" cy="-120.5" fill="#0037C3" fill-opacity=".3" rx="53.715" ry="188.997" transform="rotate(-140.853 24.0054 -120.5)"/></g><g filter="url(#filter3_f_11089_61636)"><ellipse cx="-62.638" cy="-117.821" fill="#20609A" fill-opacity=".5" rx="67.044" ry="216.058" transform="rotate(137.459 -62.6383 -117.821)"/></g><g filter="url(#filter4_f_11089_61636)"><path fill="#1FC1E6" d="M-20.6473 -1.46744C-23.294 8.40107 -64.7666 24.4942 -73.5683 22.1336C-82.3699 19.773 -69.7371 7.85208 -67.0904 -2.01642C-64.4437 -11.8849 -55.1629 -17.9713 -46.3613 -15.6107C-37.5596 -13.2501 -18.0005 -11.3359 -20.6473 -1.46744Z"/></g><g filter="url(#filter5_f_11089_61636)"><ellipse cx="-57.819" cy="-19.199" fill="#00CAF9" rx="31.5" ry="18.5" transform="rotate(-18.1585 -57.8189 -19.1992)"/></g><ellipse cx="-121.888" cy="-98.972" fill="#31D084" fill-opacity=".3" rx="63.425" ry="188.997" transform="rotate(173.259 -121.888 -98.9715)"/><defs><filter id="filter0_f_11089_61636" width="454.281" height="430.133" x="-425.773" y="-293.398" color-interpolation-filters="sRGB" filterUnits="userSpaceOnUse"><feFlood flood-opacity="0" result="BackgroundImageFix"/><feBlend in="SourceGraphic" in2="BackgroundImageFix" mode="normal" result="shape"/><feGaussianBlur result="effect1_foregroundBlur_11089_61636" stdDeviation="40"/></filter><filter id="filter1_f_11089_61636" width="536.819" height="460.139" x="-238.913" y="-330.527" color-interpolation-filters="sRGB" filterUnits="userSpaceOnUse"><feFlood flood-opacity="0" result="BackgroundImageFix"/><feBlend in="SourceGraphic" in2="BackgroundImageFix" mode="normal" result="shape"/><feGaussianBlur result="effect1_foregroundBlur_11089_61636" stdDeviation="67.9"/></filter><filter id="filter2_f_11089_61636" width="352.824" height="400.953" x="-152.406" y="-320.977" color-interpolation-filters="sRGB" filterUnits="userSpaceOnUse"><feFlood flood-opacity="0" result="BackgroundImageFix"/><feBlend in="SourceGraphic" in2="BackgroundImageFix" mode="normal" result="shape"/><feGaussianBlur result="effect1_foregroundBlur_11089_61636" stdDeviation="25"/></filter><filter id="filter3_f_11089_61636" width="468.496" height="491.125" x="-296.887" y="-363.383" color-interpolation-filters="sRGB" filterUnits="userSpaceOnUse"><feFlood flood-opacity="0" result="BackgroundImageFix"/><feBlend in="SourceGraphic" in2="BackgroundImageFix" mode="normal" result="shape"/><feGaussianBlur result="effect1_foregroundBlur_11089_61636" stdDeviation="40"/></filter><filter id="filter4_f_11089_61636" width="132.238" height="114.484" x="-114.641" y="-54.117" color-interpolation-filters="sRGB" filterUnits="userSpaceOnUse"><feFlood flood-opacity="0" result="BackgroundImageFix"/><feBlend in="SourceGraphic" in2="BackgroundImageFix" mode="normal" result="shape"/><feGaussianBlur result="effect1_foregroundBlur_11089_61636" stdDeviation="19"/></filter><filter id="filter5_f_11089_61636" width="136.973" height="116.273" x="-126.305" y="-77.336" color-interpolation-filters="sRGB" filterUnits="userSpaceOnUse"><feFlood flood-opacity="0" result="BackgroundImageFix"/><feBlend in="SourceGraphic" in2="BackgroundImageFix" mode="normal" result="shape"/><feGaussianBlur result="effect1_foregroundBlur_11089_61636" stdDeviation="19"/></filter></defs></svg>