<svg xmlns="http://www.w3.org/2000/svg" width="24" height="24" fill="none" viewBox="0 0 24 24"><rect width="24" height="24" fill="url(#paint0_linear_17818_31783)" rx="4"/><rect width="23" height="23" x=".5" y=".5" stroke="url(#paint1_linear_17818_31783)" stroke-opacity=".1" rx="3.5"/><g clip-path="url(#clip0_17818_31783)"><path stroke="#C9CBCF" stroke-linecap="round" stroke-linejoin="round" d="M15.0625 8.9375H8.9375V15.0625H15.0625V8.9375Z"/><path stroke="#C9CBCF" stroke-linecap="round" stroke-linejoin="round" d="M5.4375 9.375V6.75C5.4375 6.0255 6.0255 5.4375 6.75 5.4375H9.375"/><path stroke="#C9CBCF" stroke-linecap="round" stroke-linejoin="round" d="M14.625 5.4375H17.25C17.9745 5.4375 18.5625 6.0255 18.5625 6.75V9.375"/><path stroke="#C9CBCF" stroke-linecap="round" stroke-linejoin="round" d="M18.5625 14.625V17.25C18.5625 17.9745 17.9745 18.5625 17.25 18.5625H14.625"/><path stroke="#C9CBCF" stroke-linecap="round" stroke-linejoin="round" d="M9.375 18.5625H6.75C6.0255 18.5625 5.4375 17.9745 5.4375 17.25V14.625"/></g><defs><linearGradient id="paint0_linear_17818_31783" x1="12" x2="12" y1="0" y2="24" gradientUnits="userSpaceOnUse"><stop offset=".313" stop-color="#242628"/><stop offset="1" stop-color="#1D1E20"/></linearGradient><linearGradient id="paint1_linear_17818_31783" x1="12" x2="12" y1="0" y2="24" gradientUnits="userSpaceOnUse"><stop stop-color="#fff"/><stop offset="1" stop-color="#fff" stop-opacity=".05"/></linearGradient><clipPath id="clip0_17818_31783"><rect width="14" height="14" fill="#fff" transform="translate(5 5)"/></clipPath></defs></svg>