<svg xmlns="http://www.w3.org/2000/svg" width="24" height="24" fill="none" viewBox="0 0 24 24"><rect width="24" height="24" fill="url(#paint0_linear_17818_31804)" rx="4"/><rect width="23" height="23" x=".5" y=".5" stroke="url(#paint1_linear_17818_31804)" stroke-opacity=".1" rx="3.5"/><path stroke="#C9CBCF" stroke-linecap="round" stroke-linejoin="round" d="M17.4422 15.9486C17.4423 15.8139 17.41 15.6811 17.3479 15.5616C17.2858 15.442 17.1957 15.3392 17.0854 15.2619C15.5745 14.2834 13.7969 13.7988 11.9984 13.875C10.2 13.7988 8.42236 14.2834 6.91146 15.2619C6.80114 15.3392 6.71111 15.442 6.649 15.5616C6.58688 15.6811 6.55453 15.8139 6.55469 15.9486V18.0625H17.4422V15.9486Z"/><path stroke="#C9CBCF" stroke-linecap="round" stroke-linejoin="round" d="M11.9977 11.3625C13.6165 11.3625 14.9289 10.0501 14.9289 8.43125C14.9289 6.81237 13.6165 5.5 11.9977 5.5C10.3788 5.5 9.06641 6.81237 9.06641 8.43125C9.06641 10.0501 10.3788 11.3625 11.9977 11.3625Z"/><defs><linearGradient id="paint0_linear_17818_31804" x1="12" x2="12" y1="0" y2="24" gradientUnits="userSpaceOnUse"><stop offset=".313" stop-color="#242628"/><stop offset="1" stop-color="#1D1E20"/></linearGradient><linearGradient id="paint1_linear_17818_31804" x1="12" x2="12" y1="0" y2="24" gradientUnits="userSpaceOnUse"><stop stop-color="#fff"/><stop offset="1" stop-color="#fff" stop-opacity=".05"/></linearGradient></defs></svg>