<svg xmlns="http://www.w3.org/2000/svg" width="324" height="180" fill="none" viewBox="0 0 324 180"><circle cx="210" cy="88" r="144.5" stroke="#2A2F30"/><g filter="url(#filter0_f_23669_3361)" opacity=".12"><circle cx="11" cy="11" r="11" fill="#00E599" transform="matrix(-1 0 0 1 84 31)"/></g><g filter="url(#filter1_f_23669_3361)" opacity=".06"><circle cx="9" cy="9" r="9" fill="#00E599" transform="matrix(-1 0 0 1 82 33)"/></g><g filter="url(#filter2_f_23669_3361)" opacity=".15"><circle cx="6" cy="6" r="6" fill="#00E599" transform="matrix(-1 0 0 1 79 36)"/></g><circle cx="2" cy="2" r="2" fill="url(#paint0_radial_23669_3361)" transform="matrix(-1 0 0 1 75 40)"/><g filter="url(#filter3_f_23669_3361)" opacity=".08"><circle cx="11" cy="11" r="11" fill="#00E599" transform="matrix(-1 0 0 1 92 142)"/></g><g filter="url(#filter4_f_23669_3361)" opacity=".08"><circle cx="9" cy="9" r="9" fill="#00E599" transform="matrix(-1 0 0 1 90 144)"/></g><g filter="url(#filter5_f_23669_3361)" opacity=".15"><circle cx="6" cy="6" r="6" fill="#00E599" transform="matrix(-1 0 0 1 87 147)"/></g><circle cx="2" cy="2" r="2" fill="url(#paint1_radial_23669_3361)" transform="matrix(-1 0 0 1 83 151)"/><circle cx="210" cy="88" r="180.5" stroke="#2A2C2E"/><g filter="url(#filter6_f_23669_3361)" opacity=".05"><circle cx="11" cy="11" r="11" fill="#00E599" transform="matrix(-1 0 0 1 40.6016 87)"/></g><g filter="url(#filter7_f_23669_3361)" opacity=".08"><circle cx="9" cy="9" r="9" fill="#00E599" transform="matrix(-1 0 0 1 38.6016 89)"/></g><g filter="url(#filter8_f_23669_3361)" opacity=".08"><circle cx="6" cy="6" r="6" fill="#00E599" transform="matrix(-1 0 0 1 35.6016 92)"/></g><circle cx="1.5" cy="1.5" r="1.5" fill="url(#paint2_radial_23669_3361)" transform="matrix(-1 0 0 1 31.1016 96.5)"/><defs><filter id="filter0_f_23669_3361" width="62" height="62" x="42" y="11" color-interpolation-filters="sRGB" filterUnits="userSpaceOnUse"><feFlood flood-opacity="0" result="BackgroundImageFix"/><feBlend in="SourceGraphic" in2="BackgroundImageFix" mode="normal" result="shape"/><feGaussianBlur result="effect1_foregroundBlur_23669_3361" stdDeviation="10"/></filter><filter id="filter1_f_23669_3361" width="58" height="58" x="44" y="13" color-interpolation-filters="sRGB" filterUnits="userSpaceOnUse"><feFlood flood-opacity="0" result="BackgroundImageFix"/><feBlend in="SourceGraphic" in2="BackgroundImageFix" mode="normal" result="shape"/><feGaussianBlur result="effect1_foregroundBlur_23669_3361" stdDeviation="10"/></filter><filter id="filter2_f_23669_3361" width="24" height="24" x="61" y="30" color-interpolation-filters="sRGB" filterUnits="userSpaceOnUse"><feFlood flood-opacity="0" result="BackgroundImageFix"/><feBlend in="SourceGraphic" in2="BackgroundImageFix" mode="normal" result="shape"/><feGaussianBlur result="effect1_foregroundBlur_23669_3361" stdDeviation="3"/></filter><filter id="filter3_f_23669_3361" width="62" height="62" x="50" y="122" color-interpolation-filters="sRGB" filterUnits="userSpaceOnUse"><feFlood flood-opacity="0" result="BackgroundImageFix"/><feBlend in="SourceGraphic" in2="BackgroundImageFix" mode="normal" result="shape"/><feGaussianBlur result="effect1_foregroundBlur_23669_3361" stdDeviation="10"/></filter><filter id="filter4_f_23669_3361" width="58" height="58" x="52" y="124" color-interpolation-filters="sRGB" filterUnits="userSpaceOnUse"><feFlood flood-opacity="0" result="BackgroundImageFix"/><feBlend in="SourceGraphic" in2="BackgroundImageFix" mode="normal" result="shape"/><feGaussianBlur result="effect1_foregroundBlur_23669_3361" stdDeviation="10"/></filter><filter id="filter5_f_23669_3361" width="24" height="24" x="69" y="141" color-interpolation-filters="sRGB" filterUnits="userSpaceOnUse"><feFlood flood-opacity="0" result="BackgroundImageFix"/><feBlend in="SourceGraphic" in2="BackgroundImageFix" mode="normal" result="shape"/><feGaussianBlur result="effect1_foregroundBlur_23669_3361" stdDeviation="3"/></filter><filter id="filter6_f_23669_3361" width="52" height="52" x="3.602" y="72" color-interpolation-filters="sRGB" filterUnits="userSpaceOnUse"><feFlood flood-opacity="0" result="BackgroundImageFix"/><feBlend in="SourceGraphic" in2="BackgroundImageFix" mode="normal" result="shape"/><feGaussianBlur result="effect1_foregroundBlur_23669_3361" stdDeviation="7.5"/></filter><filter id="filter7_f_23669_3361" width="58" height="58" x=".602" y="69" color-interpolation-filters="sRGB" filterUnits="userSpaceOnUse"><feFlood flood-opacity="0" result="BackgroundImageFix"/><feBlend in="SourceGraphic" in2="BackgroundImageFix" mode="normal" result="shape"/><feGaussianBlur result="effect1_foregroundBlur_23669_3361" stdDeviation="10"/></filter><filter id="filter8_f_23669_3361" width="24" height="24" x="17.602" y="86" color-interpolation-filters="sRGB" filterUnits="userSpaceOnUse"><feFlood flood-opacity="0" result="BackgroundImageFix"/><feBlend in="SourceGraphic" in2="BackgroundImageFix" mode="normal" result="shape"/><feGaussianBlur result="effect1_foregroundBlur_23669_3361" stdDeviation="3"/></filter><radialGradient id="paint0_radial_23669_3361" cx="0" cy="0" r="1" gradientTransform="translate(2 2) rotate(90) scale(2)" gradientUnits="userSpaceOnUse"><stop stop-color="#fff"/><stop offset="1" stop-color="#00E599"/></radialGradient><radialGradient id="paint1_radial_23669_3361" cx="0" cy="0" r="1" gradientTransform="translate(2 2) rotate(90) scale(2)" gradientUnits="userSpaceOnUse"><stop stop-color="#fff"/><stop offset="1" stop-color="#00E599"/></radialGradient><radialGradient id="paint2_radial_23669_3361" cx="0" cy="0" r="1" gradientTransform="translate(1.5 1.5) rotate(90) scale(1.5)" gradientUnits="userSpaceOnUse"><stop stop-color="#fff"/><stop offset="1" stop-color="#00E599"/></radialGradient></defs></svg>