<svg xmlns="http://www.w3.org/2000/svg" width="18" height="18" fill="none" viewBox="0 0 18 18"><path stroke="currentColor" stroke-linecap="round" stroke-linejoin="round" d="M9.55636 2.88892V7.33336L7.88969 6.22225L6.22302 7.33336V2.88892"/><path stroke="currentColor" stroke-linecap="round" stroke-linejoin="round" d="M5.11111 2.88892C4.49722 2.88892 4 3.38614 4 4.00003V14C4 13.3861 4.49722 12.8889 5.11111 12.8889H12.8889C13.5028 12.8889 14 12.3917 14 11.7778V4.00003C14 3.38614 13.5028 2.88892 12.8889 2.88892H5.11111Z"/><path stroke="currentColor" stroke-linecap="round" stroke-linejoin="round" d="M12.8889 15.1107C13.5028 15.1107 14 14.6135 14 13.9996V12.8885V11.7774C14 12.3913 13.5028 12.8885 12.8889 12.8885H5.11111C4.49722 12.8885 4 13.3857 4 13.9996C4 14.6135 4.49722 15.1107 5.11111 15.1107H12.8889Z"/></svg>