<svg xmlns="http://www.w3.org/2000/svg" width="18" height="18" fill="none" viewBox="0 0 18 18"><path stroke="currentColor" stroke-linecap="round" stroke-linejoin="round" d="M7.94512 6.30938L5.39575 3.76001"/><path stroke="currentColor" stroke-linecap="round" stroke-linejoin="round" d="M3.75989 5.39587L6.30955 7.94524"/><path stroke="currentColor" stroke-linecap="round" stroke-linejoin="round" d="M11.6901 7.94524L14.2394 5.39587"/><path stroke="currentColor" stroke-linecap="round" stroke-linejoin="round" d="M12.6036 3.76001L10.0542 6.30967"/><path stroke="currentColor" stroke-linecap="round" stroke-linejoin="round" d="M10.0542 11.6902L12.6036 14.2396"/><path stroke="currentColor" stroke-linecap="round" stroke-linejoin="round" d="M14.2397 12.6036L11.6901 10.0543"/><path stroke="currentColor" stroke-linecap="round" stroke-linejoin="round" d="M6.30926 10.0543L3.75989 12.6036"/><path stroke="currentColor" stroke-linecap="round" stroke-linejoin="round" d="M5.39575 14.2398L7.94512 11.6902"/><path stroke="currentColor" stroke-linecap="round" stroke-linejoin="round" d="M8.99873 15.3627C12.5134 15.3627 15.3627 12.5135 15.3627 8.99879C15.3627 5.48407 12.5134 2.63483 8.99873 2.63483C5.48401 2.63483 2.63477 5.48407 2.63477 8.99879C2.63477 12.5135 5.48401 15.3627 8.99873 15.3627Z"/><path stroke="currentColor" stroke-linecap="round" stroke-linejoin="round" d="M11.0492 11.0455C12.1789 9.91578 12.1789 8.08422 11.0492 6.95455C9.91953 5.82487 8.08797 5.82487 6.9583 6.95455C5.82862 8.08422 5.82862 9.91578 6.9583 11.0455C8.08797 12.1751 9.91953 12.1751 11.0492 11.0455Z"/></svg>